<svg xmlns="http://www.w3.org/2000/svg" width="760" height="560" viewBox="0 0 760 560">
  <rect width="100%" height="100%" fill="white"/>
  <style>text{font-family:Arial,'Microsoft YaHei',sans-serif;font-size:18px}.box{fill:#fff;stroke:#111;stroke-width:2}.hub{fill:#ddd;stroke:#111;stroke-width:2}.line{stroke:#111;stroke-width:2}.label{font-size:16px}</style>
  <rect x="330" y="30" width="100" height="42" class="box"/><text x="380" y="57" text-anchor="middle">CPU</text>
  <line x1="380" y1="72" x2="380" y2="120" class="line"/><text x="405" y="100" class="label">FSB总线</text>
  <rect x="315" y="120" width="130" height="85" class="hub"/><text x="380" y="158" text-anchor="middle">北桥芯片</text><text x="380" y="184" text-anchor="middle">(MCH)</text>
  <line x1="315" y1="160" x2="180" y2="160" class="line"/><text x="235" y="150" class="label">PCI总线</text><rect x="65" y="137" width="105" height="46" class="box"/><text x="117" y="166" text-anchor="middle">图形卡</text>
  <line x1="445" y1="160" x2="585" y2="160" class="line"/><text x="505" y="150" class="label">内存总线</text><rect x="595" y="137" width="105" height="46" class="box"/><text x="647" y="166" text-anchor="middle">内存</text>
  <line x1="380" y1="205" x2="380" y2="290" class="line"/><text x="405" y="250" class="label">桥间总线</text>
  <rect x="315" y="290" width="130" height="85" class="hub"/><text x="380" y="328" text-anchor="middle">南桥芯片</text><text x="380" y="354" text-anchor="middle">(ICH)</text>
  <line x1="315" y1="330" x2="180" y2="330" class="line"/><text x="225" y="320" class="label">USB总线</text><rect x="65" y="307" width="105" height="46" class="box"/><text x="117" y="336" text-anchor="middle">USB设备</text>
  <line x1="445" y1="330" x2="585" y2="330" class="line"/><text x="505" y="320" class="label">SATA总线</text><rect x="595" y="307" width="105" height="46" class="box"/><text x="647" y="336" text-anchor="middle">磁盘</text>
  <line x1="350" y1="375" x2="350" y2="445" class="line"/><text x="306" y="415" class="label">ISA总线</text><rect x="285" y="445" width="85" height="42" class="box"/><text x="327" y="472" text-anchor="middle">BIOS</text>
  <line x1="415" y1="375" x2="415" y2="445" class="line"/><text x="440" y="415" class="label">串行总线</text><rect x="395" y="445" width="105" height="42" class="box"/><text x="447" y="472" text-anchor="middle">其他外设</text>
  <text x="380" y="530" text-anchor="middle">图6.2 南北桥结构示意图</text>
</svg>
